<svg version="1.1" id="Layer_1" xmlns="http://www.w3.org/2000/svg" xmlns:xlink="http://www.w3.org/1999/xlink" x="0px" y="0px"
	 width="100%" viewBox="0 0 200 165" enable-background="new 0 0 200 165" xml:space="preserve">
<path fill="#FEFFFF" opacity="1.000000" stroke="none" 
	d="
M201.000000,113.000000 
	C201.000000,125.020897 201.000000,137.041794 200.534805,149.595398 
	C139.847214,150.128128 79.624825,150.128128 19.469444,150.128128 
	C19.469444,137.331436 19.469444,125.293457 19.469444,113.005486 
	C35.632710,113.615944 47.908451,106.779671 57.447681,94.797768 
	C61.575760,89.612633 64.999420,83.863609 68.700020,78.341888 
	C75.899590,67.599281 82.159988,56.062157 90.488792,46.284695 
	C100.130318,34.966202 114.288406,35.128933 123.904930,46.509834 
	C131.877502,55.945168 137.901276,67.022751 144.837830,77.339554 
	C149.100021,83.678741 153.101898,90.235878 157.839569,96.203842 
	C168.874146,110.103951 183.872543,114.436821 201.000000,113.000000 
M45.891197,129.682175 
	C46.938267,131.455994 47.985340,133.229813 49.542465,135.867691 
	C51.613209,132.576508 53.135296,130.157333 54.766659,127.564491 
	C56.495205,137.828125 56.495205,137.828125 59.492023,137.160904 
	C59.492023,130.901611 59.492023,124.653267 59.492023,118.195091 
	C51.835358,117.190498 53.672245,125.480919 49.106892,127.844223 
	C47.658607,125.191208 46.360832,122.348267 44.601280,119.827690 
	C43.929451,118.865250 42.195496,118.240395 40.954205,118.253929 
	C40.355785,118.260452 39.306374,120.086754 39.270813,121.116982 
	C39.110168,125.771309 39.098324,130.444016 39.375790,135.089630 
	C39.435055,136.081924 40.923306,136.988861 41.753239,137.935120 
	C42.414600,137.001755 43.532520,136.120758 43.646755,135.124649 
	C43.924870,132.699646 43.737331,130.221237 43.737331,126.470917 
	C44.994488,128.234421 45.279640,128.634415 45.891197,129.682175 
M101.853294,130.872818 
	C103.021942,129.364517 104.190598,127.856224 105.359245,126.347916 
	C105.993217,127.906487 106.851418,129.417145 107.197540,131.037231 
	C107.537773,132.629730 107.160103,134.375168 107.497009,135.969040 
	C107.647240,136.679779 108.700714,137.473312 109.487732,137.678253 
	C110.001350,137.812012 111.359383,136.923187 111.338997,136.546570 
	C111.118347,132.470795 111.306366,128.190323 109.983482,124.462296 
	C109.558022,123.263298 105.006279,123.528496 101.849297,123.048958 
	C101.849297,123.014618 102.074791,121.971375 101.796730,121.086365 
	C101.374069,119.741142 100.602127,118.505669 99.978546,117.223572 
	C99.274406,118.444550 98.028503,119.637215 97.962921,120.891571 
	C97.720795,125.522842 97.767609,130.178513 97.950249,134.815384 
	C97.989922,135.822662 99.042625,136.790070 99.628746,137.775833 
	C100.367546,136.760178 101.316444,135.830109 101.776527,134.700897 
	C102.124489,133.846893 101.848244,132.738571 101.853294,130.872818 
M82.790024,124.423332 
	C84.858925,120.885010 87.757675,121.384514 90.976753,122.543747 
	C92.092232,122.945442 93.473999,122.607704 95.306274,122.607704 
	C92.748909,118.011581 89.395241,117.468163 85.803734,118.119759 
	C81.682281,118.867508 78.884262,121.445236 78.115433,125.605080 
	C77.297318,130.031616 78.624481,133.830933 82.649109,136.282104 
	C86.222183,138.458267 89.895645,138.756149 93.255768,135.945740 
	C94.047989,135.283127 94.162125,133.809784 94.588203,132.709396 
	C93.549850,132.720627 92.509300,132.692810 91.473579,132.750992 
	C89.158722,132.881012 85.652382,134.039841 84.790695,132.996399 
	C83.182541,131.049011 83.111641,127.832130 82.790024,124.423332 
M122.907333,127.977592 
	C120.920525,128.362228 118.500015,128.183105 117.066010,129.286301 
	C115.560791,130.444305 114.113914,132.939087 114.321312,134.645523 
	C114.474915,135.909271 117.241394,137.580765 118.979515,137.760712 
	C121.752792,138.047836 124.638794,137.246201 127.830795,136.862396 
	C127.506622,133.774414 127.773392,129.974289 126.512794,126.776207 
	C125.799873,124.967560 122.701790,123.547592 120.444496,123.080063 
	C118.750282,122.729156 116.683830,124.175415 114.783104,124.821571 
	C114.995758,125.111656 115.208412,125.401741 115.421074,125.691833 
	C117.908981,126.202339 120.396896,126.712845 122.907333,127.977592 
M68.457077,143.147766 
	C71.258728,136.784637 74.060379,130.421509 76.862030,124.058380 
	C76.128387,123.680511 75.394753,123.302643 74.661118,122.924774 
	C70.419418,124.665886 71.987991,130.249222 69.417580,133.269424 
	C65.552872,123.238678 65.552872,123.238678 62.683586,123.886261 
	C61.868572,130.074219 71.679077,135.500641 62.693951,143.154160 
	C64.915855,143.350983 66.380722,143.480743 68.457077,143.147766 
M156.006699,122.912048 
	C154.482346,124.247032 152.957993,125.582016 151.433655,126.917007 
	C154.020920,129.261368 156.608200,131.605743 159.723068,134.428162 
	C156.800186,134.428162 154.121017,134.428162 151.441833,134.428162 
	C151.382339,134.909958 151.322845,135.391739 151.263351,135.873535 
	C153.194809,136.538177 155.284470,138.007889 157.018356,137.667160 
	C159.271271,137.224411 162.185211,135.818451 163.117584,133.970734 
	C164.613174,131.006805 161.697174,129.843857 159.222397,128.967010 
	C158.031677,128.545151 156.963181,127.778358 155.839325,127.167763 
	C155.993835,126.749756 156.148346,126.331757 156.302856,125.913757 
	C158.122955,126.045189 159.943054,126.176620 161.941711,126.320953 
	C162.149139,121.842026 158.879944,123.291107 156.006699,122.912048 
M140.915482,125.900711 
	C141.302429,128.416931 141.386444,131.034256 142.180801,133.414505 
	C142.727661,135.053162 143.985199,136.992874 145.435867,137.623947 
	C146.629272,138.143082 148.573944,136.935257 151.131546,136.233154 
	C144.868332,132.182083 144.594437,129.002701 148.517227,124.579803 
	C147.595261,122.860359 146.815277,121.291443 145.920227,119.791183 
	C145.547836,119.167000 144.993271,118.345924 144.406723,118.237930 
	C143.774521,118.121521 142.580887,118.559685 142.374817,119.061111 
	C141.540604,121.091026 140.992249,123.238411 140.915482,125.900711 
M135.767151,123.916908 
	C130.281845,123.125381 130.281815,123.125381 130.282715,129.450424 
	C130.282913,130.775436 130.014633,132.174133 130.352371,133.406723 
	C130.769516,134.929138 131.690445,136.313492 132.393707,137.757507 
	C133.167694,136.385757 134.432587,135.074951 134.612106,133.629364 
	C134.971207,130.737503 134.077591,127.514206 138.164017,126.414711 
	C138.617447,126.292694 138.688080,124.747887 138.936234,123.862938 
	C138.085358,123.741638 137.234497,123.620338 135.767151,123.916908 
z"/>
<path fill="#FEFFFF" opacity="1.000000" stroke="none" 
	d="
M19.000000,1.000000 
	C79.571068,1.000000 140.142136,1.000000 201.000000,1.000000 
	C201.000000,32.686985 201.000000,64.374832 200.538177,96.529739 
	C190.280014,97.606125 180.984497,96.429276 174.088699,88.481140 
	C170.834702,84.730591 167.866653,80.678131 165.183167,76.496696 
	C157.651001,64.760025 151.005814,52.393875 142.793381,41.166485 
	C125.346191,17.314014 93.935844,15.461982 74.781548,37.155708 
	C68.028648,44.803890 63.124470,54.077518 57.313343,62.565975 
	C51.043049,71.725159 45.163704,81.207985 38.220985,89.830757 
	C33.733364,95.404327 26.975918,97.702751 19.000000,96.560394 
	C19.000000,64.538239 19.000000,32.769119 19.000000,1.000000 
z"/>
<path fill="#63DCFB" opacity="1.000000" stroke="none" 
	d="
M18.530293,1.000000 
	C19.000000,32.769119 19.000000,64.538239 19.000000,96.560394 
	C26.975918,97.702751 33.733364,95.404327 38.220985,89.830757 
	C45.163704,81.207985 51.043049,71.725159 57.313343,62.565975 
	C63.124470,54.077518 68.028648,44.803890 74.781548,37.155708 
	C93.935844,15.461982 125.346191,17.314014 142.793381,41.166485 
	C151.005814,52.393875 157.651001,64.760025 165.183167,76.496696 
	C167.866653,80.678131 170.834702,84.730591 174.088699,88.481140 
	C180.984497,96.429276 190.280014,97.606125 200.538177,96.998398 
	C201.000000,102.022095 201.000000,107.044182 201.000000,112.533142 
	C183.872543,114.436821 168.874146,110.103951 157.839569,96.203842 
	C153.101898,90.235878 149.100021,83.678741 144.837830,77.339554 
	C137.901276,67.022751 131.877502,55.945168 123.904930,46.509834 
	C114.288406,35.128933 100.130318,34.966202 90.488792,46.284695 
	C82.159988,56.062157 75.899590,67.599281 68.700020,78.341888 
	C64.999420,83.863609 61.575760,89.612633 57.447681,94.797768 
	C47.908451,106.779671 35.632710,113.615944 19.469444,113.005486 
	C19.469444,125.293457 19.469444,137.331436 19.469444,150.128128 
	C79.624825,150.128128 139.847214,150.128128 200.534805,150.064056 
	C201.000000,155.327454 201.000000,160.654907 201.000000,165.986771 
	C134.412720,165.991180 67.825439,165.991180 1.119077,165.991180 
	C1.119077,111.000175 1.119077,56.000126 1.119077,1.000000 
	C6.739775,1.000000 12.400179,1.000000 18.530293,1.000000 
z"/>
<path fill="#71DFFB" opacity="1.000000" stroke="none" 
	d="
M45.727997,129.358307 
	C45.279640,128.634415 44.994488,128.234421 43.737331,126.470917 
	C43.737331,130.221237 43.924870,132.699646 43.646755,135.124649 
	C43.532520,136.120758 42.414600,137.001755 41.753239,137.935120 
	C40.923306,136.988861 39.435055,136.081924 39.375790,135.089630 
	C39.098324,130.444016 39.110168,125.771309 39.270813,121.116982 
	C39.306374,120.086754 40.355785,118.260452 40.954205,118.253929 
	C42.195496,118.240395 43.929451,118.865250 44.601280,119.827690 
	C46.360832,122.348267 47.658607,125.191208 49.106892,127.844223 
	C53.672245,125.480919 51.835358,117.190498 59.492023,118.195091 
	C59.492023,124.653267 59.492023,130.901611 59.492023,137.160904 
	C56.495205,137.828125 56.495205,137.828125 54.766659,127.564491 
	C53.135296,130.157333 51.613209,132.576508 49.542465,135.867691 
	C47.985340,133.229813 46.938267,131.455994 45.727997,129.358307 
z"/>
<path fill="#70DDFA" opacity="1.000000" stroke="none" 
	d="
M101.851547,131.308121 
	C101.848244,132.738571 102.124489,133.846893 101.776527,134.700897 
	C101.316444,135.830109 100.367546,136.760178 99.628746,137.775833 
	C99.042625,136.790070 97.989922,135.822662 97.950249,134.815384 
	C97.767609,130.178513 97.720795,125.522842 97.962921,120.891571 
	C98.028503,119.637215 99.274406,118.444550 99.978546,117.223572 
	C100.602127,118.505669 101.374069,119.741142 101.796730,121.086365 
	C102.074791,121.971375 101.849297,123.014618 101.849297,123.048958 
	C105.006279,123.528496 109.558022,123.263298 109.983482,124.462296 
	C111.306366,128.190323 111.118347,132.470795 111.338997,136.546570 
	C111.359383,136.923187 110.001350,137.812012 109.487732,137.678253 
	C108.700714,137.473312 107.647240,136.679779 107.497009,135.969040 
	C107.160103,134.375168 107.537773,132.629730 107.197540,131.037231 
	C106.851418,129.417145 105.993217,127.906487 105.359253,126.347916 
	C104.190598,127.856224 103.021942,129.364517 101.851547,131.308121 
z"/>
<path fill="#6FDEFB" opacity="1.000000" stroke="none" 
	d="
M82.595535,124.783432 
	C83.111641,127.832130 83.182541,131.049011 84.790695,132.996399 
	C85.652382,134.039841 89.158722,132.881012 91.473579,132.750992 
	C92.509300,132.692810 93.549850,132.720627 94.588203,132.709396 
	C94.162125,133.809784 94.047989,135.283127 93.255768,135.945740 
	C89.895645,138.756149 86.222183,138.458267 82.649109,136.282104 
	C78.624481,133.830933 77.297318,130.031616 78.115433,125.605080 
	C78.884262,121.445236 81.682281,118.867508 85.803734,118.119759 
	C89.395241,117.468163 92.748909,118.011581 95.306274,122.607704 
	C93.473999,122.607704 92.092232,122.945442 90.976753,122.543747 
	C87.757675,121.384514 84.858925,120.885010 82.595535,124.783432 
z"/>
<path fill="#70DEFB" opacity="1.000000" stroke="none" 
	d="
M122.896072,127.600479 
	C120.396896,126.712845 117.908981,126.202339 115.421074,125.691833 
	C115.208412,125.401741 114.995758,125.111656 114.783104,124.821571 
	C116.683830,124.175415 118.750282,122.729156 120.444496,123.080063 
	C122.701790,123.547592 125.799873,124.967560 126.512794,126.776207 
	C127.773392,129.974289 127.506622,133.774414 127.830795,136.862396 
	C124.638794,137.246201 121.752792,138.047836 118.979515,137.760712 
	C117.241394,137.580765 114.474915,135.909271 114.321312,134.645523 
	C114.113914,132.939087 115.560791,130.444305 117.066010,129.286301 
	C118.500015,128.183105 120.920525,128.362228 122.896072,127.600479 
z"/>
<path fill="#6EDEFB" opacity="1.000000" stroke="none" 
	d="
M68.151337,143.379135 
	C66.380722,143.480743 64.915855,143.350983 62.693951,143.154160 
	C71.679077,135.500641 61.868572,130.074219 62.683586,123.886261 
	C65.552872,123.238678 65.552872,123.238678 69.417580,133.269424 
	C71.987991,130.249222 70.419418,124.665886 74.661118,122.924774 
	C75.394753,123.302643 76.128387,123.680511 76.862030,124.058380 
	C74.060379,130.421509 71.258728,136.784637 68.151337,143.379135 
z"/>
<path fill="#6EDEFB" opacity="1.000000" stroke="none" 
	d="
M156.416504,122.885155 
	C158.879944,123.291107 162.149139,121.842026 161.941711,126.320953 
	C159.943054,126.176620 158.122955,126.045189 156.302856,125.913757 
	C156.148346,126.331757 155.993835,126.749756 155.839325,127.167763 
	C156.963181,127.778358 158.031677,128.545151 159.222397,128.967010 
	C161.697174,129.843857 164.613174,131.006805 163.117584,133.970734 
	C162.185211,135.818451 159.271271,137.224411 157.018356,137.667160 
	C155.284470,138.007889 153.194809,136.538177 151.263351,135.873535 
	C151.322845,135.391739 151.382339,134.909958 151.441833,134.428162 
	C154.121017,134.428162 156.800186,134.428162 159.723068,134.428162 
	C156.608200,131.605743 154.020920,129.261368 151.433655,126.917007 
	C152.957993,125.582016 154.482346,124.247032 156.416504,122.885155 
z"/>
<path fill="#71DFFB" opacity="1.000000" stroke="none" 
	d="
M140.626938,125.621582 
	C140.992249,123.238411 141.540604,121.091026 142.374817,119.061111 
	C142.580887,118.559685 143.774521,118.121521 144.406723,118.237930 
	C144.993271,118.345924 145.547836,119.167000 145.920227,119.791183 
	C146.815277,121.291443 147.595261,122.860359 148.517227,124.579803 
	C144.594437,129.002701 144.868332,132.182083 151.131546,136.233154 
	C148.573944,136.935257 146.629272,138.143082 145.435867,137.623947 
	C143.985199,136.992874 142.727661,135.053162 142.180801,133.414505 
	C141.386444,131.034256 141.302429,128.416931 140.626938,125.621582 
z"/>
<path fill="#6BDDFB" opacity="1.000000" stroke="none" 
	d="
M136.075378,123.707977 
	C137.234497,123.620338 138.085358,123.741638 138.936234,123.862930 
	C138.688080,124.747887 138.617447,126.292694 138.164017,126.414711 
	C134.077591,127.514206 134.971207,130.737503 134.612106,133.629364 
	C134.432587,135.074951 133.167694,136.385757 132.393707,137.757507 
	C131.690445,136.313492 130.769516,134.929138 130.352371,133.406723 
	C130.014633,132.174133 130.282913,130.775436 130.282715,129.450424 
	C130.281815,123.125381 130.281845,123.125381 136.075378,123.707977 
z"/>
</svg>